# xmcd
#
# Track frame offsets:
#	150
#	32478
#	33518
#	45217
#	54966
#	73870
#	78819
#
# Disc length: 1135 seconds
#
# Revision: 0
# Processed by: cddbd v1.5.1PL0 Copyright (c) Steve Scherf et al.
# Submitted via: dBpowerAMP V4.0
#
DISCID=49046d07
DTITLE=quasar - solstice majik
DYEAR=1900
DGENRE=
TTITLE0=lily's in love
TTITLE1=fing r lik-r
TTITLE2=approaching planet zenn
TTITLE3=driving on zenn
TTITLE4=on planet zenn
TTITLE5=zenn backyard
TTITLE6=telepathic ending
EXTD=
EXTT0=
EXTT1=
EXTT2=
EXTT3=
EXTT4=
EXTT5=
EXTT6=
PLAYORDER=
